<?xml version="1.0" encoding="iso-8859-1"?>
<!-- Uploaded to: SVG Repo, www.svgrepo.com, Generator: SVG Repo Mixer Tools -->
<svg fill="#000000" version="1.1" id="Capa_1" xmlns="http://www.w3.org/2000/svg" xmlns:xlink="http://www.w3.org/1999/xlink" 
	 viewBox="0 0 60 60" xml:space="preserve">
<g>
	<g>
		<path d="M14,32v-2h-2V16h-2v15c0,0.6,0.4,1,1,1H14z"/>
		<path d="M12,2h23V0H11c-0.6,0-1,0.4-1,1v3h2V2z"/>
		<path d="M58,38.1l-5.9-7.7c-0.2-0.3-0.5-0.4-0.8-0.4H46v2h4.8l7.4,9.6c0.2,0.3,0.5,0.4,0.8,0.4c0.1,0,0.2,0,0.3-0.1
			c0.4-0.1,0.7-0.5,0.7-0.9V26h-2V38.1z"/>
		<path d="M7.9,48.4L2,56.1V20h5v-2H1c-0.6,0-1,0.4-1,1v40c0,0.4,0.3,0.8,0.7,0.9C0.8,60,0.9,60,1,60c0.3,0,0.6-0.1,0.8-0.4L9.2,50
			H14v-2H8.7C8.4,48,8.1,48.1,7.9,48.4z"/>
		<path d="M48,48h-2v2h3c0.6,0,1-0.4,1-1V35h-2V48z"/>
		<path d="M43,30H17c-0.6,0-1,0.4-1,1v4h-5v2h6c0.6,0,1-0.4,1-1v-3.1l11.4,7.9c0.2,0.1,0.4,0.2,0.6,0.2s0.4-0.1,0.5-0.2l11.5-8V48
			H18v-4c0-0.6-0.4-1-1-1H9v2h7v4c0,0.6,0.4,1,1,1h26c0.6,0,1-0.4,1-1V31C44,30.4,43.6,30,43,30z M30,38.8L20.1,32h19.7L30,38.8z"/>
		<rect x="5" y="35" width="4" height="2"/>
		<path d="M59,10h-2.8c-0.1-0.1-0.1-0.3-0.2-0.4l1.9-1.9c0.2-0.2,0.3-0.4,0.3-0.7s-0.1-0.5-0.3-0.7l-4.2-4.2c-0.4-0.4-1-0.4-1.4,0
			L50.4,4c-0.2,0-0.3-0.1-0.4-0.1V1c0-0.6-0.4-1-1-1h-6c-0.6,0-1,0.4-1,1v2.8c-0.1,0.1-0.3,0.1-0.4,0.2l-1.9-1.9
			c-0.4-0.4-1-0.4-1.4,0l-4.2,4.2c-0.2,0.2-0.3,0.4-0.3,0.7s0.1,0.5,0.3,0.7L36,9.6c0,0.2-0.1,0.3-0.1,0.3H33c-0.6,0-1,0.4-1,1v6
			c0,0.6,0.4,1,1,1h2.8c0.1,0.1,0.1,0.3,0.2,0.4l-1.9,1.9c-0.2,0.2-0.3,0.4-0.3,0.7c0,0.3,0.1,0.5,0.3,0.7l4.2,4.2
			c0.4,0.4,1,0.4,1.4,0l1.9-1.9c0.2,0.1,0.3,0.1,0.4,0.2V27c0,0.6,0.4,1,1,1h6c0.6,0,1-0.4,1-1v-2.8c0.1-0.1,0.3-0.1,0.4-0.2
			l1.9,1.9c0.4,0.4,1,0.4,1.4,0l4.2-4.2c0.2-0.2,0.3-0.4,0.3-0.7s-0.1-0.5-0.3-0.7L56,18.4c0.1-0.1,0.1-0.3,0.2-0.4H59
			c0.6,0,1-0.4,1-1v-6C60,10.4,59.6,10,59,10z M58,16h-2.5c-0.5,0-0.9,0.4-1,0.8c0,0.2-0.4,1-0.5,1.2s-0.2,0.4-0.2,0.6
			c0,0.3,0.1,0.5,0.3,0.7l1.7,1.7L53,23.8l-1.7-1.7c-0.2-0.2-0.4-0.3-0.7-0.3c-0.2,0-0.4,0.1-0.6,0.2s-1,0.4-1.2,0.5
			c-0.5,0.1-0.8,0.5-0.8,1V26h-4v-2.5c0-0.3-0.1-0.5-0.3-0.7c-0.2-0.3-1.9-1-2.3-1c-0.3,0-0.5,0.1-0.7,0.3L39,23.8L36.2,21l1.7-1.7
			c0.2-0.2,0.3-0.4,0.3-0.7c0-0.2-0.1-0.4-0.2-0.6s-0.4-1-0.5-1.2c-0.1-0.5-0.5-0.8-1-0.8H34v-4h2.5c0.3,0,0.5-0.1,0.7-0.3
			c0.3-0.2,1-1.9,1-2.3c0-0.3-0.1-0.5-0.3-0.7L36.2,7L39,4.2l1.7,1.7c0.2,0.2,0.4,0.3,0.7,0.3c0.2,0,0.4-0.1,0.6-0.2s1-0.4,1.2-0.5
			C43.7,5.4,44,5,44,4.5V2h4v2.5c0,0.3,0.1,0.5,0.3,0.7c0.2,0.3,1.9,1,2.3,1c0.3,0,0.5-0.1,0.7-0.3L53,4.2L55.8,7l-1.7,1.7
			c-0.2,0.2-0.3,0.4-0.3,0.7c0,0.2,0.1,0.4,0.2,0.6s0.4,1,0.5,1.2c0.1,0.5,0.5,0.8,1,0.8H58V16z"/>
		<path d="M46,10c-2.2,0-4,1.8-4,4s1.8,4,4,4s4-1.8,4-4S48.2,10,46,10z M46,16c-1.1,0-2-0.9-2-2s0.9-2,2-2s2,0.9,2,2S47.1,16,46,16z
			"/>
		<rect x="5" y="43" width="2" height="2"/>
		<rect x="7" y="39" width="11" height="2"/>
		<path d="M14.3,9.3l1.4,1.4l3-3c0.4-0.4,0.4-1,0-1.4l-3-3l-1.4,1.4L15.6,6H0v2h15.6L14.3,9.3z"/>
		<path d="M3.3,16.7l1.4-1.4L3.4,14H19v-2H3.4l1.3-1.3L3.3,9.3l-3,3c-0.4,0.4-0.4,1,0,1.4L3.3,16.7z"/>
		<rect x="20" y="24" width="11" height="2"/>
		<rect x="15" y="24" width="3" height="2"/>
		<rect x="15" y="20" width="16" height="2"/>
		<rect x="15" y="16" width="16" height="2"/>
		<rect x="25" y="12" width="6" height="2"/>
		<rect x="25" y="8" width="6" height="2"/>
		<rect x="25" y="4" width="6" height="2"/>
	</g>
</g>
</svg>